<svg xmlns="http://www.w3.org/2000/svg" xmlns:xlink="http://www.w3.org/1999/xlink" xmlns:lucid="lucid" width="1555" height="1069"><g transform="translate(1111 594)" lucid:page-tab-id="0_0"><path d="M-1000-500H500V500h-1500z" fill="#fff"/><path d="M-960-474.62a6 6 0 0 1 6-6h468a6 6 0 0 1 6 6v304a6 6 0 0 1-6 6h-468a6 6 0 0 1-6-6z" stroke="#000" stroke-width="2" fill-opacity="0"/><path d="M-960-437.73h480" stroke="#000" stroke-width="2" fill="none"/><use xlink:href="#a" transform="matrix(1,0,0,1,-952,-472.61810743382733) translate(206.50086805555554 21.58376736111111)"/><use xlink:href="#b" transform="matrix(1,0,0,1,-948,-429.730086600494) translate(0 72.05251736111111)"/><use xlink:href="#c" transform="matrix(1,0,0,1,-948,-429.730086600494) translate(20.95269097222222 72.05251736111111)"/><use xlink:href="#d" transform="matrix(1,0,0,1,-948,-429.730086600494) translate(46.19140625 72.05251736111111)"/><use xlink:href="#b" transform="matrix(1,0,0,1,-948,-429.730086600494) translate(0 104.31814236111111)"/><use xlink:href="#e" transform="matrix(1,0,0,1,-948,-429.730086600494) translate(20.95269097222222 104.31814236111111)"/><use xlink:href="#f" transform="matrix(1,0,0,1,-948,-429.730086600494) translate(66.86197916666666 104.31814236111111)"/><use xlink:href="#g" transform="matrix(1,0,0,1,-948,-429.730086600494) translate(162.98828125 104.31814236111111)"/><use xlink:href="#b" transform="matrix(1,0,0,1,-948,-429.730086600494) translate(0 136.58376736111111)"/><use xlink:href="#h" transform="matrix(1,0,0,1,-948,-429.730086600494) translate(20.95269097222222 136.58376736111111)"/><use xlink:href="#i" transform="matrix(1,0,0,1,-948,-429.730086600494) translate(82.86675347222223 136.58376736111111)"/><use xlink:href="#b" transform="matrix(1,0,0,1,-948,-429.730086600494) translate(0 168.84939236111111)"/><use xlink:href="#j" transform="matrix(1,0,0,1,-948,-429.730086600494) translate(20.95269097222222 168.84939236111111)"/><use xlink:href="#i" transform="matrix(1,0,0,1,-948,-429.730086600494) translate(129.67664930555554 168.84939236111111)"/><use xlink:href="#b" transform="matrix(1,0,0,1,-948,-429.730086600494) translate(0 201.11501736111111)"/><use xlink:href="#k" transform="matrix(1,0,0,1,-948,-429.730086600494) translate(20.95269097222222 201.11501736111111)"/><use xlink:href="#l" transform="matrix(1,0,0,1,-948,-429.730086600494) translate(85.23220486111111 201.11501736111111)"/><path d="M-240-490.62a6 6 0 0 1 6-6h508a6 6 0 0 1 6 6v336a6 6 0 0 1-6 6h-508a6 6 0 0 1-6-6z" stroke="#000" stroke-width="2" fill-opacity="0"/><path d="M-240-453.73h520" stroke="#000" stroke-width="2" fill="none"/><use xlink:href="#m" transform="matrix(1,0,0,1,-232,-488.61810743382733) translate(212.70963541666669 21.58376736111111)"/><use xlink:href="#b" transform="matrix(1,0,0,1,-228,-445.730086600494) translate(0 72.41970486111111)"/><use xlink:href="#c" transform="matrix(1,0,0,1,-228,-445.730086600494) translate(20.95269097222222 72.41970486111111)"/><use xlink:href="#d" transform="matrix(1,0,0,1,-228,-445.730086600494) translate(46.19140625 72.41970486111111)"/><use xlink:href="#b" transform="matrix(1,0,0,1,-228,-445.730086600494) translate(0 104.68532986111111)"/><use xlink:href="#n" transform="matrix(1,0,0,1,-228,-445.730086600494) translate(20.95269097222222 104.68532986111111)"/><use xlink:href="#o" transform="matrix(1,0,0,1,-228,-445.730086600494) translate(115.4296875 104.68532986111111)"/><use xlink:href="#b" transform="matrix(1,0,0,1,-228,-445.730086600494) translate(0 136.95095486111111)"/><use xlink:href="#p" transform="matrix(1,0,0,1,-228,-445.730086600494) translate(20.95269097222222 136.95095486111111)"/><use xlink:href="#q" transform="matrix(1,0,0,1,-228,-445.730086600494) translate(72.81901041666666 136.95095486111111)"/><use xlink:href="#b" transform="matrix(1,0,0,1,-228,-445.730086600494) translate(0 169.21657986111111)"/><use xlink:href="#r" transform="matrix(1,0,0,1,-228,-445.730086600494) translate(20.95269097222222 169.21657986111111)"/><use xlink:href="#q" transform="matrix(1,0,0,1,-228,-445.730086600494) translate(106.0112847222222 169.21657986111111)"/><use xlink:href="#b" transform="matrix(1,0,0,1,-228,-445.730086600494) translate(0 201.48220486111111)"/><use xlink:href="#s" transform="matrix(1,0,0,1,-228,-445.730086600494) translate(20.95269097222222 201.48220486111111)"/><use xlink:href="#t" transform="matrix(1,0,0,1,-228,-445.730086600494) translate(90.92881944444446 201.48220486111111)"/><use xlink:href="#u" transform="matrix(1,0,0,1,-228,-445.730086600494) translate(175.85720486111111 201.48220486111111)"/><use xlink:href="#v" transform="matrix(1,0,0,1,-228,-445.730086600494) translate(339.93055555555554 201.48220486111111)"/><use xlink:href="#w" transform="matrix(1,0,0,1,-228,-445.730086600494) translate(0 233.74782986111111)"/><use xlink:href="#x" transform="matrix(1,0,0,1,-228,-445.730086600494) translate(27.20269097222222 233.74782986111111)"/><use xlink:href="#y" transform="matrix(1,0,0,1,-228,-445.730086600494) translate(139.97395833333334 233.74782986111111)"/><path d="M-242-322.62h-218.5" stroke="#3a414a" stroke-width="2" fill="none"/><path d="M-241-321.64h-1.03v-1.95h1.03z" stroke="#3a414a" stroke-width=".05" fill="#3a414a"/><path d="M-475.76-322.62l14.26-4.63v9.27z" stroke="#3a414a" stroke-width="2" fill="#3a414a"/><path d="M-960 26a6 6 0 0 1 6-6h468a6 6 0 0 1 6 6v336a6 6 0 0 1-6 6h-468a6 6 0 0 1-6-6z" stroke="#000" stroke-width="2" fill-opacity="0"/><path d="M-960 62.9h480" stroke="#000" stroke-width="2" fill="none"/><g><use xlink:href="#z" transform="matrix(1,0,0,1,-952,28) translate(186.63324652777777 21.58376736111111)"/></g><g><use xlink:href="#b" transform="matrix(1,0,0,1,-948,70.88802083333334) translate(0 72.41970486111111)"/><use xlink:href="#c" transform="matrix(1,0,0,1,-948,70.88802083333334) translate(20.95269097222222 72.41970486111111)"/><use xlink:href="#d" transform="matrix(1,0,0,1,-948,70.88802083333334) translate(46.19140625 72.41970486111111)"/><use xlink:href="#b" transform="matrix(1,0,0,1,-948,70.88802083333334) translate(0 104.68532986111111)"/><use xlink:href="#k" transform="matrix(1,0,0,1,-948,70.88802083333334) translate(20.95269097222222 104.68532986111111)"/><use xlink:href="#i" transform="matrix(1,0,0,1,-948,70.88802083333334) translate(85.23220486111111 104.68532986111111)"/><use xlink:href="#b" transform="matrix(1,0,0,1,-948,70.88802083333334) translate(0 136.95095486111111)"/><use xlink:href="#A" transform="matrix(1,0,0,1,-948,70.88802083333334) translate(20.95269097222222 136.95095486111111)"/><use xlink:href="#q" transform="matrix(1,0,0,1,-948,70.88802083333334) translate(93.359375 136.95095486111111)"/><use xlink:href="#b" transform="matrix(1,0,0,1,-948,70.88802083333334) translate(0 169.21657986111111)"/><use xlink:href="#h" transform="matrix(1,0,0,1,-948,70.88802083333334) translate(20.95269097222222 169.21657986111111)"/><use xlink:href="#B" transform="matrix(1,0,0,1,-948,70.88802083333334) translate(82.86675347222223 169.21657986111111)"/><use xlink:href="#b" transform="matrix(1,0,0,1,-948,70.88802083333334) translate(0 201.48220486111111)"/><use xlink:href="#C" transform="matrix(1,0,0,1,-948,70.88802083333334) translate(20.95269097222222 201.48220486111111)"/><use xlink:href="#i" transform="matrix(1,0,0,1,-948,70.88802083333334) translate(97.69965277777777 201.48220486111111)"/><use xlink:href="#w" transform="matrix(1,0,0,1,-948,70.88802083333334) translate(0 233.74782986111111)"/><use xlink:href="#D" transform="matrix(1,0,0,1,-948,70.88802083333334) translate(27.20269097222222 233.74782986111111)"/><use xlink:href="#y" transform="matrix(1,0,0,1,-948,70.88802083333334) translate(99.5659722222222 233.74782986111111)"/></g><path d="M-720 18v-163.12" stroke="#3a414a" stroke-width="2" fill="none"/><path d="M-719.02 19H-721v-1.03h1.96z" stroke="#3a414a" stroke-width=".05" fill="#3a414a"/><path d="M-720-160.38l4.63 14.26h-9.26z" stroke="#3a414a" stroke-width="2" fill="#3a414a"/><path d="M-238.86 26a6 6 0 0 1 6-6h508a6 6 0 0 1 6 6v336a6 6 0 0 1-6 6h-508a6 6 0 0 1-6-6z" stroke="#000" stroke-width="2" fill-opacity="0"/><path d="M-238.86 62.9h520" stroke="#000" stroke-width="2" fill="none"/><g><use xlink:href="#E" transform="matrix(1,0,0,1,-230.8571875,28) translate(204.24609375 21.58376736111111)"/></g><g><use xlink:href="#b" transform="matrix(1,0,0,1,-226.8571875,70.88802083333334) translate(0 72.41970486111111)"/><use xlink:href="#c" transform="matrix(1,0,0,1,-226.8571875,70.88802083333334) translate(20.95269097222222 72.41970486111111)"/><use xlink:href="#d" transform="matrix(1,0,0,1,-226.8571875,70.88802083333334) translate(46.19140625 72.41970486111111)"/><use xlink:href="#b" transform="matrix(1,0,0,1,-226.8571875,70.88802083333334) translate(0 104.68532986111111)"/><use xlink:href="#F" transform="matrix(1,0,0,1,-226.8571875,70.88802083333334) translate(20.95269097222222 104.68532986111111)"/><use xlink:href="#o" transform="matrix(1,0,0,1,-226.8571875,70.88802083333334) translate(167.01388888888889 104.68532986111111)"/><use xlink:href="#b" transform="matrix(1,0,0,1,-226.8571875,70.88802083333334) translate(0 136.95095486111111)"/><use xlink:href="#r" transform="matrix(1,0,0,1,-226.8571875,70.88802083333334) translate(20.95269097222222 136.95095486111111)"/><use xlink:href="#q" transform="matrix(1,0,0,1,-226.8571875,70.88802083333334) translate(106.0112847222222 136.95095486111111)"/><use xlink:href="#b" transform="matrix(1,0,0,1,-226.8571875,70.88802083333334) translate(0 169.21657986111111)"/><use xlink:href="#G" transform="matrix(1,0,0,1,-226.8571875,70.88802083333334) translate(20.95269097222222 169.21657986111111)"/><use xlink:href="#i" transform="matrix(1,0,0,1,-226.8571875,70.88802083333334) translate(73.66536458333333 169.21657986111111)"/><use xlink:href="#w" transform="matrix(1,0,0,1,-226.8571875,70.88802083333334) translate(0 201.48220486111111)"/><use xlink:href="#H" transform="matrix(1,0,0,1,-226.8571875,70.88802083333334) translate(27.20269097222222 201.48220486111111)"/><use xlink:href="#d" transform="matrix(1,0,0,1,-226.8571875,70.88802083333334) translate(127.62586805555554 201.48220486111111)"/><use xlink:href="#I" transform="matrix(1,0,0,1,-226.8571875,70.88802083333334) translate(0 233.74782986111111)"/></g><path d="M21.14 18v-81.74a.57.57 0 0 0-.57-.57.57.57 0 0 1-.57-.58v-64.24" stroke="#3a414a" stroke-width="2" fill="none"/><path d="M22.12 19h-1.95v-1.03h1.95z" stroke="#3a414a" stroke-width=".05" fill="#3a414a"/><path d="M20-144.38l4.64 14.26h-9.28z" stroke="#3a414a" stroke-width="2" fill="#3a414a"/><path d="M-480-354a6 6 0 0 1 6-6h8a6 6 0 0 1 6 6v24.9a6 6 0 0 1-6 6h-8a6 6 0 0 1-6-6z" fill="none"/><g><use xlink:href="#J" transform="matrix(1,0,0,1,-475,-355) translate(0 21.58376736111111)"/></g><path d="M-260-354a6 6 0 0 1 6-6h9.14a6 6 0 0 1 6 6v24.9a6 6 0 0 1-6 6H-254a6 6 0 0 1-6-6z" fill="none"/><g><use xlink:href="#K" transform="matrix(1,0,0,1,-255,-355) translate(0 21.58376736111111)"/></g><path d="M38.34-139.63a6 6 0 0 1 6-6h8a6 6 0 0 1 6 6v24.9a6 6 0 0 1-6 6h-8a6 6 0 0 1-6-6z" fill="none"/><g><use xlink:href="#J" transform="matrix(1,0,0,1,43.34202237618865,-140.63399119646846) translate(0 21.58376736111111)"/></g><path d="M37.2 86a6 6 0 0 1 6-6h9.14a6 6 0 0 1 6 6v24.9a6 6 0 0 1-6 6H43.2a6 6 0 0 1-6-6z" fill="none"/><g><use xlink:href="#K" transform="matrix(1,0,0,1,42.19920987618865,85) translate(0 21.58376736111111)"/></g><path d="M-700-158.62a6 6 0 0 1 6-6h8a6 6 0 0 1 6 6v24.9a6 6 0 0 1-6 6h-8a6 6 0 0 1-6-6z" fill="none"/><g><use xlink:href="#J" transform="matrix(1,0,0,1,-695,-159.61810743382733) translate(0 21.58376736111111)"/></g><path d="M-705.8-21.96a6 6 0 0 1 6-6h9.14a6 6 0 0 1 6 6v24.9a6 6 0 0 1-6 6h-9.14a6 6 0 0 1-6-6z" fill="none"/><g><use xlink:href="#K" transform="matrix(1,0,0,1,-700.8039463546672,-22.961177689348972) translate(0 21.58376736111111)"/></g><defs><path d="M750 21c-371 0-615-218-615-544v-967h305v942c0 174 123 299 310 299s309-125 309-299v-942h306v967c0 326-247 544-615 544" id="L"/><path d="M572 22C302 22 117-98 78-306l279-48c29 105 101 156 224 156 114 0 185-48 185-115 0-118-228-130-337-155-215-49-322-150-322-317 0-215 187-347 470-347 265 0 424 116 466 298l-266 47c-24-76-87-130-196-130-98 0-174 46-174 113 0 56 38 95 144 117l201 40c216 44 320 143 320 302 0 220-207 367-500 367" id="M"/><path d="M633 22C291 22 81-200 81-553c0-345 210-579 537-579 292 0 525 185 525 567v84H378c7 183 109 277 260 277 105 0 184-46 216-132l272 51C1071-99 893 22 633 22zM380-669h474c-15-146-94-237-233-237-143 0-229 99-241 237" id="N"/><path d="M128 0v-1118h290v195h12c54-169 184-238 367-200v268c-27-8-86-15-130-15-138 0-239 95-239 234V0H128" id="O"/><g id="a"><use transform="matrix(0.010850694444444444,0,0,0.010850694444444444,0,0)" xlink:href="#L"/><use transform="matrix(0.010850694444444444,0,0,0.010850694444444444,16.26519097222222,0)" xlink:href="#M"/><use transform="matrix(0.010850694444444444,0,0,0.010850694444444444,28.7109375,0)" xlink:href="#N"/><use transform="matrix(0.010850694444444444,0,0,0.010850694444444444,41.94878472222222,0)" xlink:href="#O"/></g><path d="M593-100v-404H195v-159h398v-403h169v403h398v159H762v404H593" id="P"/><use transform="matrix(0.010850694444444444,0,0,0.010850694444444444,0,0)" xlink:href="#P" id="b"/><path d="M158 0v-1118h180V0H158zm91-1301c-68 0-125-53-125-119s57-119 125-119c69 0 126 53 126 119s-57 119-126 119" id="Q"/><path d="M577 24c-279 0-473-224-473-580 0-354 195-576 474-576 218 0 287 134 324 193h14v-551h180V0H922v-173h-20C865-111 790 24 577 24zm27-161c203 0 314-172 314-421 0-247-108-413-314-413-212 0-317 181-317 413 0 235 108 421 317 421" id="R"/><g id="c"><use transform="matrix(0.010850694444444444,0,0,0.010850694444444444,0,0)" xlink:href="#Q"/><use transform="matrix(0.010850694444444444,0,0,0.010850694444444444,5.381944444444445,0)" xlink:href="#R"/></g><path d="M613 24c-304 0-509-231-509-576 0-350 205-580 509-580 305 0 511 230 511 580 0 345-206 576-511 576zm0-161c226 0 329-195 329-415 0-222-103-419-329-419-223 0-326 196-326 419 0 220 103 415 326 415" id="S"/><path d="M677 24c-213 0-288-135-325-197h-20V0H158v-1490h180v551h14c37-59 106-193 324-193 279 0 474 222 474 576 0 356-194 580-473 580zm-27-161c209 0 317-186 317-421 0-232-105-413-317-413-206 0-314 166-314 413 0 249 111 421 314 421" id="T"/><path d="M157-1118h181V80c1 225-123 350-364 338V252c126 9 184-48 183-172v-1198zm91-183c-68 0-125-53-125-119s57-119 125-119c69 0 126 53 126 119s-57 119-126 119" id="U"/><path d="M628 24c-324 0-524-230-524-574 0-343 198-582 503-582 237 0 487 146 487 559v75H286c9 234 145 362 343 362 132 0 231-58 273-172l174 48C1024-91 857 24 628 24zM287-650h624c-17-190-120-322-304-322-192 0-309 151-320 322" id="V"/><path d="M613 24c-304 0-509-231-509-576 0-350 205-580 509-580 216 0 392 114 453 309l-173 49c-33-115-133-197-280-197-223 0-326 196-326 419 0 220 103 415 326 415 150 0 252-85 285-206l172 49C1010-95 832 24 613 24" id="W"/><path d="M598-1118v154H368v674c0 100 37 144 132 144 23 0 62-6 92-12L629-6c-37 13-88 20-134 20-193 0-307-107-307-290v-688H20v-154h168v-266h180v266h230" id="X"/><path d="M370-1490V0H180v-1490h190" id="Y"/><g id="d"><use transform="matrix(0.010850694444444444,0,0,0.010850694444444444,0,0)" xlink:href="#S"/><use transform="matrix(0.010850694444444444,0,0,0.010850694444444444,13.324652777777777,0)" xlink:href="#T"/><use transform="matrix(0.010850694444444444,0,0,0.010850694444444444,26.931423611111104,0)" xlink:href="#U"/><use transform="matrix(0.010850694444444444,0,0,0.010850694444444444,32.31336805555555,0)" xlink:href="#V"/><use transform="matrix(0.010850694444444444,0,0,0.010850694444444444,45.26909722222221,0)" xlink:href="#W"/><use transform="matrix(0.010850694444444444,0,0,0.010850694444444444,57.96440972222221,0)" xlink:href="#X"/><use transform="matrix(0.010850694444444444,0,0,0.010850694444444444,65.23437499999999,0)" xlink:href="#Y"/><use transform="matrix(0.010850694444444444,0,0,0.010850694444444444,71.20225694444443,0)" xlink:href="#R"/></g><path d="M158 0v-1118h174v172h12c41-113 157-188 290-188 26 0 70 2 91 3v181c-11-2-60-10-108-10-161 0-279 109-279 260V0H158" id="Z"/><path d="M338-1490V0H158v-1490h180" id="aa"/><g id="e"><use transform="matrix(0.010850694444444444,0,0,0.010850694444444444,0,0)" xlink:href="#Z"/><use transform="matrix(0.010850694444444444,0,0,0.010850694444444444,7.996961805555555,0)" xlink:href="#S"/><use transform="matrix(0.010850694444444444,0,0,0.010850694444444444,21.321614583333332,0)" xlink:href="#aa"/><use transform="matrix(0.010850694444444444,0,0,0.010850694444444444,26.70355902777778,0)" xlink:href="#V"/></g><path d="M226 279v-1860h398v153H398V126h226v153H226" id="ab"/><path d="M232-923l-22-567h194l-22 567H232zm340 0l-22-567h194l-22 567H572" id="ac"/><path d="M338-670V0H158v-1118h173l1 207c72-158 192-221 342-221 226 0 378 139 378 422V0H872v-695c0-172-96-275-252-275-161 0-282 109-282 300" id="ad"/><path d="M128 359l88-567h206L266 359H128" id="ae"/><g id="f"><use transform="matrix(0.010850694444444444,0,0,0.010850694444444444,0,0)" xlink:href="#ab"/><use transform="matrix(0.010850694444444444,0,0,0.010850694444444444,8.10546875,0)" xlink:href="#ac"/><use transform="matrix(0.010850694444444444,0,0,0.010850694444444444,18.131510416666668,0)" xlink:href="#W"/><use transform="matrix(0.010850694444444444,0,0,0.010850694444444444,30.826822916666664,0)" xlink:href="#aa"/><use transform="matrix(0.010850694444444444,0,0,0.010850694444444444,36.208767361111114,0)" xlink:href="#Q"/><use transform="matrix(0.010850694444444444,0,0,0.010850694444444444,41.59071180555556,0)" xlink:href="#V"/><use transform="matrix(0.010850694444444444,0,0,0.010850694444444444,54.54644097222222,0)" xlink:href="#ad"/><use transform="matrix(0.010850694444444444,0,0,0.010850694444444444,67.67578125,0)" xlink:href="#X"/><use transform="matrix(0.010850694444444444,0,0,0.010850694444444444,74.94574652777777,0)" xlink:href="#ac"/><use transform="matrix(0.010850694444444444,0,0,0.010850694444444444,83.4743923611111,0)" xlink:href="#ae"/></g><path d="M471 26C259 26 90-98 90-318c0-256 228-303 435-329 202-27 287-16 287-108 0-139-79-219-234-219-161 0-248 86-283 164l-173-57c86-203 278-265 451-265 150 0 419 46 419 395V0H815v-152h-12C765-73 660 26 471 26zm31-159c199 0 310-134 310-271v-155c-30 35-226 55-295 64-131 17-246 59-246 186 0 116 97 176 231 176" id="af"/><path d="M158 0v-1118h175l1 205c55-151 181-225 313-225 147 0 245 90 285 228 53-141 190-228 352-228 194 0 352 125 352 384V0h-181v-749c0-161-105-225-225-225-151 0-243 103-243 244V0H807v-767c0-124-93-207-219-207-131 0-250 92-250 270V0H158" id="ag"/><path d="M123 279V126h226v-1554H123v-153h398V279H123" id="ah"/><g id="g"><use transform="matrix(0.010850694444444444,0,0,0.010850694444444444,0,0)" xlink:href="#ac"/><use transform="matrix(0.010850694444444444,0,0,0.010850694444444444,10.3515625,0)" xlink:href="#af"/><use transform="matrix(0.010850694444444444,0,0,0.010850694444444444,22.82986111111111,0)" xlink:href="#R"/><use transform="matrix(0.010850694444444444,0,0,0.010850694444444444,36.43663194444444,0)" xlink:href="#ag"/><use transform="matrix(0.010850694444444444,0,0,0.010850694444444444,55.90277777777778,0)" xlink:href="#Q"/><use transform="matrix(0.010850694444444444,0,0,0.010850694444444444,61.28472222222221,0)" xlink:href="#ad"/><use transform="matrix(0.010850694444444444,0,0,0.010850694444444444,74.41406249999999,0)" xlink:href="#ac"/><use transform="matrix(0.010850694444444444,0,0,0.010850694444444444,84.76562499999999,0)" xlink:href="#ah"/></g><g id="h"><use transform="matrix(0.010850694444444444,0,0,0.010850694444444444,0,0)" xlink:href="#V"/><use transform="matrix(0.010850694444444444,0,0,0.010850694444444444,12.955729166666666,0)" xlink:href="#ag"/><use transform="matrix(0.010850694444444444,0,0,0.010850694444444444,32.421875,0)" xlink:href="#af"/><use transform="matrix(0.010850694444444444,0,0,0.010850694444444444,44.90017361111111,0)" xlink:href="#Q"/><use transform="matrix(0.010850694444444444,0,0,0.010850694444444444,50.28211805555556,0)" xlink:href="#aa"/></g><path d="M538 24C308 24 148-78 108-271l171-41c32 123 123 178 257 178 156 0 256-77 256-169 0-77-54-128-164-154l-186-44c-203-48-300-148-300-305 0-192 176-326 414-326 230 0 351 112 402 269l-163 42c-31-80-94-158-238-158-133 0-233 69-233 162 0 83 57 129 188 160l169 40c203 48 298 149 298 302 0 196-179 339-441 339" id="ai"/><path d="M611 442c-248 0-391-105-460-228l146-94c47 65 117 165 314 165 178 0 307-82 307-266v-224h-17C863-141 792-18 576-18c-268 0-472-195-472-546 0-346 197-568 476-568 216 0 288 133 326 193h17v-179h175V29c0 289-215 413-487 413zm-5-620c203 0 314-146 314-390 0-237-108-403-314-403-213 0-319 180-319 403 0 230 109 390 319 390" id="aj"/><g id="i"><use transform="matrix(0.010850694444444444,0,0,0.010850694444444444,0,0)" xlink:href="#ai"/><use transform="matrix(0.010850694444444444,0,0,0.010850694444444444,11.729600694444445,0)" xlink:href="#X"/><use transform="matrix(0.010850694444444444,0,0,0.010850694444444444,18.99956597222222,0)" xlink:href="#Z"/><use transform="matrix(0.010850694444444444,0,0,0.010850694444444444,27.712673611111104,0)" xlink:href="#Q"/><use transform="matrix(0.010850694444444444,0,0,0.010850694444444444,33.09461805555555,0)" xlink:href="#ad"/><use transform="matrix(0.010850694444444444,0,0,0.010850694444444444,46.22395833333333,0)" xlink:href="#aj"/></g><path d="M158 418v-1536h174v179h20c37-59 106-193 324-193 279 0 474 222 474 576 0 356-194 580-473 580-213 0-288-135-325-197h-14v591H158zm492-555c209 0 317-186 317-421 0-232-105-413-317-413-206 0-314 166-314 413 0 249 111 421 314 421" id="ak"/><path d="M409 0L70-1118h191c89 329 165 560 243 925 75-353 154-601 240-925h192c85 325 161 564 235 922 77-354 157-598 244-922h191L1267 0h-179c-86-307-176-590-250-913C763-588 675-308 588 0H409" id="al"/><g id="j"><use transform="matrix(0.010850694444444444,0,0,0.010850694444444444,0,0)" xlink:href="#ak"/><use transform="matrix(0.010850694444444444,0,0,0.010850694444444444,13.823784722222221,0)" xlink:href="#af"/><use transform="matrix(0.010850694444444444,0,0,0.010850694444444444,26.302083333333332,0)" xlink:href="#ai"/><use transform="matrix(0.010850694444444444,0,0,0.010850694444444444,38.03168402777778,0)" xlink:href="#ai"/><use transform="matrix(0.010850694444444444,0,0,0.010850694444444444,49.76128472222222,0)" xlink:href="#al"/><use transform="matrix(0.010850694444444444,0,0,0.010850694444444444,67.54557291666667,0)" xlink:href="#S"/><use transform="matrix(0.010850694444444444,0,0,0.010850694444444444,80.87022569444444,0)" xlink:href="#Z"/><use transform="matrix(0.010850694444444444,0,0,0.010850694444444444,88.8671875,0)" xlink:href="#R"/></g><g id="k"><use transform="matrix(0.010850694444444444,0,0,0.010850694444444444,0,0)" xlink:href="#ad"/><use transform="matrix(0.010850694444444444,0,0,0.010850694444444444,13.129340277777777,0)" xlink:href="#af"/><use transform="matrix(0.010850694444444444,0,0,0.010850694444444444,25.60763888888889,0)" xlink:href="#ag"/><use transform="matrix(0.010850694444444444,0,0,0.010850694444444444,45.07378472222221,0)" xlink:href="#V"/></g><g id="l"><use transform="matrix(0.010850694444444444,0,0,0.010850694444444444,0,0)" xlink:href="#ai"/><use transform="matrix(0.010850694444444444,0,0,0.010850694444444444,11.729600694444445,0)" xlink:href="#X"/><use transform="matrix(0.010850694444444444,0,0,0.010850694444444444,18.99956597222222,0)" xlink:href="#Z"/><use transform="matrix(0.010850694444444444,0,0,0.010850694444444444,27.712673611111104,0)" xlink:href="#Q"/><use transform="matrix(0.010850694444444444,0,0,0.010850694444444444,33.09461805555555,0)" xlink:href="#ad"/><use transform="matrix(0.010850694444444444,0,0,0.010850694444444444,46.22395833333333,0)" xlink:href="#aj"/></g><path d="M440-1490V0H135v-1490h305" id="am"/><path d="M428-647V0H128v-1118h283l4 231c63-156 176-245 348-245 232 0 384 159 384 421V0H847v-659c0-139-76-222-202-222-128 0-217 86-217 234" id="an"/><path d="M443 0L31-1118h319c90 293 199 572 268 885 66-313 175-593 264-885h315L784 0H443" id="ao"/><path d="M628 22C291 22 81-210 81-554c0-346 210-578 547-578 336 0 547 232 547 578 0 344-211 576-547 576zm0-236c160 0 242-146 242-341 0-197-82-341-242-341S387-753 387-555c0 195 81 341 241 341" id="ap"/><path d="M128 0v-1118h300V0H128zm150-1264c-91 0-165-68-165-154 0-85 74-154 165-154 90 0 165 69 165 154 0 86-75 154-165 154" id="aq"/><path d="M628 22C291 22 81-210 81-554c0-346 210-578 547-578 265 0 455 142 497 372l-279 52c-25-116-99-188-215-188-160 0-244 139-244 341 0 200 84 341 244 341 116 0 193-74 217-195l279 51C1085-123 896 22 628 22" id="ar"/><g id="m"><use transform="matrix(0.010850694444444444,0,0,0.010850694444444444,0,0)" xlink:href="#am"/><use transform="matrix(0.010850694444444444,0,0,0.010850694444444444,6.239149305555555,0)" xlink:href="#an"/><use transform="matrix(0.010850694444444444,0,0,0.010850694444444444,19.694010416666664,0)" xlink:href="#ao"/><use transform="matrix(0.010850694444444444,0,0,0.010850694444444444,32.6171875,0)" xlink:href="#ap"/><use transform="matrix(0.010850694444444444,0,0,0.010850694444444444,46.24565972222222,0)" xlink:href="#aq"/><use transform="matrix(0.010850694444444444,0,0,0.010850694444444444,52.267795138888886,0)" xlink:href="#ar"/><use transform="matrix(0.010850694444444444,0,0,0.010850694444444444,65.34288194444444,0)" xlink:href="#N"/></g><path d="M537 14c-226 0-379-139-379-422v-710h180v695c0 172 97 275 253 275 160 0 281-109 281-300v-670h181V0H879v-209C806-46 684 14 537 14" id="as"/><path d="M645 0H180v-1490h484c435 0 692 280 692 742 0 466-257 748-711 748zM370-168h263c363 0 539-218 539-580 0-358-176-574-521-574H370v1154" id="at"/><g id="n"><use transform="matrix(0.010850694444444444,0,0,0.010850694444444444,0,0)" xlink:href="#R"/><use transform="matrix(0.010850694444444444,0,0,0.010850694444444444,13.606770833333332,0)" xlink:href="#as"/><use transform="matrix(0.010850694444444444,0,0,0.010850694444444444,26.746961805555554,0)" xlink:href="#V"/><use transform="matrix(0.010850694444444444,0,0,0.010850694444444444,39.70269097222222,0)" xlink:href="#at"/><use transform="matrix(0.010850694444444444,0,0,0.010850694444444444,55.74001736111112,0)" xlink:href="#af"/><use transform="matrix(0.010850694444444444,0,0,0.010850694444444444,68.21831597222223,0)" xlink:href="#X"/><use transform="matrix(0.010850694444444444,0,0,0.010850694444444444,75.27126736111111,0)" xlink:href="#V"/></g><g id="o"><use transform="matrix(0.010850694444444444,0,0,0.010850694444444444,0,0)" xlink:href="#at"/><use transform="matrix(0.010850694444444444,0,0,0.010850694444444444,16.03732638888889,0)" xlink:href="#af"/><use transform="matrix(0.010850694444444444,0,0,0.010850694444444444,28.515625,0)" xlink:href="#X"/><use transform="matrix(0.010850694444444444,0,0,0.010850694444444444,35.568576388888886,0)" xlink:href="#V"/></g><g id="p"><use transform="matrix(0.010850694444444444,0,0,0.010850694444444444,0,0)" xlink:href="#X"/><use transform="matrix(0.010850694444444444,0,0,0.010850694444444444,7.052951388888888,0)" xlink:href="#S"/><use transform="matrix(0.010850694444444444,0,0,0.010850694444444444,20.377604166666664,0)" xlink:href="#X"/><use transform="matrix(0.010850694444444444,0,0,0.010850694444444444,27.75607638888889,0)" xlink:href="#af"/><use transform="matrix(0.010850694444444444,0,0,0.010850694444444444,40.234375,0)" xlink:href="#aa"/></g><g id="q"><use transform="matrix(0.010850694444444444,0,0,0.010850694444444444,0,0)" xlink:href="#ad"/><use transform="matrix(0.010850694444444444,0,0,0.010850694444444444,13.129340277777777,0)" xlink:href="#as"/><use transform="matrix(0.010850694444444444,0,0,0.010850694444444444,26.26953125,0)" xlink:href="#ag"/><use transform="matrix(0.010850694444444444,0,0,0.010850694444444444,45.73567708333333,0)" xlink:href="#T"/><use transform="matrix(0.010850694444444444,0,0,0.010850694444444444,59.34244791666666,0)" xlink:href="#V"/><use transform="matrix(0.010850694444444444,0,0,0.010850694444444444,72.29817708333333,0)" xlink:href="#Z"/></g><g id="r"><use transform="matrix(0.010850694444444444,0,0,0.010850694444444444,0,0)" xlink:href="#af"/><use transform="matrix(0.010850694444444444,0,0,0.010850694444444444,12.47829861111111,0)" xlink:href="#ag"/><use transform="matrix(0.010850694444444444,0,0,0.010850694444444444,31.944444444444443,0)" xlink:href="#S"/><use transform="matrix(0.010850694444444444,0,0,0.010850694444444444,45.26909722222222,0)" xlink:href="#as"/><use transform="matrix(0.010850694444444444,0,0,0.010850694444444444,58.40928819444444,0)" xlink:href="#ad"/><use transform="matrix(0.010850694444444444,0,0,0.010850694444444444,71.53862847222221,0)" xlink:href="#X"/></g><g id="s"><use transform="matrix(0.010850694444444444,0,0,0.010850694444444444,0,0)" xlink:href="#ai"/><use transform="matrix(0.010850694444444444,0,0,0.010850694444444444,11.729600694444445,0)" xlink:href="#X"/><use transform="matrix(0.010850694444444444,0,0,0.010850694444444444,19.108072916666668,0)" xlink:href="#af"/><use transform="matrix(0.010850694444444444,0,0,0.010850694444444444,31.586371527777775,0)" xlink:href="#X"/><use transform="matrix(0.010850694444444444,0,0,0.010850694444444444,38.85633680555556,0)" xlink:href="#as"/><use transform="matrix(0.010850694444444444,0,0,0.010850694444444444,51.99652777777778,0)" xlink:href="#ai"/></g><g id="t"><use transform="matrix(0.010850694444444444,0,0,0.010850694444444444,0,0)" xlink:href="#ab"/><use transform="matrix(0.010850694444444444,0,0,0.010850694444444444,8.10546875,0)" xlink:href="#ac"/><use transform="matrix(0.010850694444444444,0,0,0.010850694444444444,18.45703125,0)" xlink:href="#ak"/><use transform="matrix(0.010850694444444444,0,0,0.010850694444444444,32.28081597222222,0)" xlink:href="#af"/><use transform="matrix(0.010850694444444444,0,0,0.010850694444444444,44.75911458333333,0)" xlink:href="#Q"/><use transform="matrix(0.010850694444444444,0,0,0.010850694444444444,50.14105902777778,0)" xlink:href="#R"/><use transform="matrix(0.010850694444444444,0,0,0.010850694444444444,63.7478298611111,0)" xlink:href="#ac"/><use transform="matrix(0.010850694444444444,0,0,0.010850694444444444,72.27647569444443,0)" xlink:href="#ae"/></g><path d="M140 405l46-156c120 36 205 19 263-150l32-93L54-1118h197c107 313 237 620 324 950 87-331 219-637 326-950h196L606 167c-68 178-176 259-334 259-64 0-113-12-132-21" id="au"/><path d="M934 0v166H0V0h934" id="av"/><g id="u"><use transform="matrix(0.010850694444444444,0,0,0.010850694444444444,0,0)" xlink:href="#ac"/><use transform="matrix(0.010850694444444444,0,0,0.010850694444444444,10.3515625,0)" xlink:href="#ak"/><use transform="matrix(0.010850694444444444,0,0,0.010850694444444444,24.17534722222222,0)" xlink:href="#af"/><use transform="matrix(0.010850694444444444,0,0,0.010850694444444444,36.65364583333333,0)" xlink:href="#Z"/><use transform="matrix(0.010850694444444444,0,0,0.010850694444444444,45.36675347222221,0)" xlink:href="#X"/><use transform="matrix(0.010850694444444444,0,0,0.010850694444444444,52.636718749999986,0)" xlink:href="#Q"/><use transform="matrix(0.010850694444444444,0,0,0.010850694444444444,58.018663194444436,0)" xlink:href="#af"/><use transform="matrix(0.010850694444444444,0,0,0.010850694444444444,70.49696180555554,0)" xlink:href="#aa"/><use transform="matrix(0.010850694444444444,0,0,0.010850694444444444,75.98741319444443,0)" xlink:href="#au"/><use transform="matrix(0.010850694444444444,0,0,0.010850694444444444,86.71874999999999,0)" xlink:href="#av"/><use transform="matrix(0.010850694444444444,0,0,0.010850694444444444,97.60199652777777,0)" xlink:href="#ak"/><use transform="matrix(0.010850694444444444,0,0,0.010850694444444444,111.42578124999997,0)" xlink:href="#af"/><use transform="matrix(0.010850694444444444,0,0,0.010850694444444444,123.9040798611111,0)" xlink:href="#Q"/><use transform="matrix(0.010850694444444444,0,0,0.010850694444444444,129.28602430555554,0)" xlink:href="#R"/><use transform="matrix(0.010850694444444444,0,0,0.010850694444444444,142.89279513888889,0)" xlink:href="#ac"/><use transform="matrix(0.010850694444444444,0,0,0.010850694444444444,151.42144097222223,0)" xlink:href="#ae"/></g><g id="v"><use transform="matrix(0.010850694444444444,0,0,0.010850694444444444,0,0)" xlink:href="#ac"/><use transform="matrix(0.010850694444444444,0,0,0.010850694444444444,10.3515625,0)" xlink:href="#as"/><use transform="matrix(0.010850694444444444,0,0,0.010850694444444444,23.49175347222222,0)" xlink:href="#ad"/><use transform="matrix(0.010850694444444444,0,0,0.010850694444444444,36.62109375,0)" xlink:href="#ak"/><use transform="matrix(0.010850694444444444,0,0,0.010850694444444444,50.44487847222221,0)" xlink:href="#af"/><use transform="matrix(0.010850694444444444,0,0,0.010850694444444444,62.92317708333333,0)" xlink:href="#Q"/><use transform="matrix(0.010850694444444444,0,0,0.010850694444444444,68.30512152777777,0)" xlink:href="#R"/><use transform="matrix(0.010850694444444444,0,0,0.010850694444444444,81.9118923611111,0)" xlink:href="#ac"/><use transform="matrix(0.010850694444444444,0,0,0.010850694444444444,92.26345486111111,0)" xlink:href="#ah"/></g><use transform="matrix(0.010850694444444444,0,0,0.010850694444444444,0,0)" xlink:href="#P" id="w"/><g id="x"><use transform="matrix(0.010850694444444444,0,0,0.010850694444444444,0,0)" xlink:href="#ai"/><use transform="matrix(0.010850694444444444,0,0,0.010850694444444444,11.729600694444445,0)" xlink:href="#as"/><use transform="matrix(0.010850694444444444,0,0,0.010850694444444444,24.869791666666664,0)" xlink:href="#ak"/><use transform="matrix(0.010850694444444444,0,0,0.010850694444444444,38.4765625,0)" xlink:href="#ak"/><use transform="matrix(0.010850694444444444,0,0,0.010850694444444444,52.08333333333333,0)" xlink:href="#aa"/><use transform="matrix(0.010850694444444444,0,0,0.010850694444444444,57.46527777777778,0)" xlink:href="#Q"/><use transform="matrix(0.010850694444444444,0,0,0.010850694444444444,62.84722222222221,0)" xlink:href="#V"/><use transform="matrix(0.010850694444444444,0,0,0.010850694444444444,75.80295138888889,0)" xlink:href="#Z"/><use transform="matrix(0.010850694444444444,0,0,0.010850694444444444,84.51605902777779,0)" xlink:href="#Y"/><use transform="matrix(0.010850694444444444,0,0,0.010850694444444444,90.48394097222221,0)" xlink:href="#at"/></g><g id="y"><use transform="matrix(0.010850694444444444,0,0,0.010850694444444444,0,0)" xlink:href="#S"/><use transform="matrix(0.010850694444444444,0,0,0.010850694444444444,13.324652777777777,0)" xlink:href="#T"/><use transform="matrix(0.010850694444444444,0,0,0.010850694444444444,26.931423611111104,0)" xlink:href="#U"/><use transform="matrix(0.010850694444444444,0,0,0.010850694444444444,32.31336805555555,0)" xlink:href="#V"/><use transform="matrix(0.010850694444444444,0,0,0.010850694444444444,45.26909722222221,0)" xlink:href="#W"/><use transform="matrix(0.010850694444444444,0,0,0.010850694444444444,57.96440972222221,0)" xlink:href="#X"/><use transform="matrix(0.010850694444444444,0,0,0.010850694444444444,65.23437499999999,0)" xlink:href="#Y"/><use transform="matrix(0.010850694444444444,0,0,0.010850694444444444,71.20225694444443,0)" xlink:href="#R"/></g><path d="M681 22C323 22 94-145 85-462h297c10 151 131 226 296 226 163 0 271-77 271-190 0-102-95-149-257-189l-164-41c-252-61-403-188-403-405 0-269 236-449 560-449 330 0 546 183 551 445H941c-11-119-106-188-259-188-156 0-244 72-244 172-3 156 226 185 373 221 250 61 445 186 445 436 0 271-213 446-575 446" id="aw"/><path d="M513 14c-232 0-385-159-385-421v-711h300v659c0 139 76 222 202 222 127 0 217-86 217-234v-647h301V0H864l-4-232C797-74 683 14 513 14" id="ax"/><path d="M128 418v-1536h295v188h14c41-89 129-202 319-202 248 0 453 193 453 575 0 372-197 576-455 576-183 0-275-108-317-198h-9v597H128zm534-640c156 0 240-139 240-336 0-196-83-334-240-334-154 0-241 131-241 334 0 202 88 336 241 336" id="ay"/><path d="M428-1490V0H128v-1490h300" id="az"/><g id="z"><use transform="matrix(0.010850694444444444,0,0,0.010850694444444444,0,0)" xlink:href="#aw"/><use transform="matrix(0.010850694444444444,0,0,0.010850694444444444,14.55078125,0)" xlink:href="#ax"/><use transform="matrix(0.010850694444444444,0,0,0.010850694444444444,28.385416666666664,0)" xlink:href="#ay"/><use transform="matrix(0.010850694444444444,0,0,0.010850694444444444,42.39366319444444,0)" xlink:href="#ay"/><use transform="matrix(0.010850694444444444,0,0,0.010850694444444444,56.40190972222222,0)" xlink:href="#az"/><use transform="matrix(0.010850694444444444,0,0,0.010850694444444444,62.424045138888886,0)" xlink:href="#aq"/><use transform="matrix(0.010850694444444444,0,0,0.010850694444444444,68.44618055555556,0)" xlink:href="#N"/><use transform="matrix(0.010850694444444444,0,0,0.010850694444444444,81.68402777777777,0)" xlink:href="#O"/></g><path d="M338-670V0H158v-1490h180v566c73-149 190-208 336-208 226 0 379 139 379 422V0H872v-695c0-172-96-275-252-275-161 0-282 109-282 300" id="aA"/><g id="A"><use transform="matrix(0.010850694444444444,0,0,0.010850694444444444,0,0)" xlink:href="#ak"/><use transform="matrix(0.010850694444444444,0,0,0.010850694444444444,13.606770833333332,0)" xlink:href="#aA"/><use transform="matrix(0.010850694444444444,0,0,0.010850694444444444,26.746961805555554,0)" xlink:href="#S"/><use transform="matrix(0.010850694444444444,0,0,0.010850694444444444,40.07161458333333,0)" xlink:href="#ad"/><use transform="matrix(0.010850694444444444,0,0,0.010850694444444444,53.20095486111111,0)" xlink:href="#V"/></g><g id="B"><use transform="matrix(0.010850694444444444,0,0,0.010850694444444444,0,0)" xlink:href="#ai"/><use transform="matrix(0.010850694444444444,0,0,0.010850694444444444,11.729600694444445,0)" xlink:href="#Z"/><use transform="matrix(0.010850694444444444,0,0,0.010850694444444444,20.442708333333332,0)" xlink:href="#X"/><use transform="matrix(0.010850694444444444,0,0,0.010850694444444444,27.71267361111111,0)" xlink:href="#Q"/><use transform="matrix(0.010850694444444444,0,0,0.010850694444444444,33.09461805555556,0)" xlink:href="#ad"/><use transform="matrix(0.010850694444444444,0,0,0.010850694444444444,46.22395833333333,0)" xlink:href="#aj"/></g><g id="C"><use transform="matrix(0.010850694444444444,0,0,0.010850694444444444,0,0)" xlink:href="#af"/><use transform="matrix(0.010850694444444444,0,0,0.010850694444444444,12.47829861111111,0)" xlink:href="#R"/><use transform="matrix(0.010850694444444444,0,0,0.010850694444444444,26.085069444444443,0)" xlink:href="#Z"/><use transform="matrix(0.010850694444444444,0,0,0.010850694444444444,34.08203125,0)" xlink:href="#V"/><use transform="matrix(0.010850694444444444,0,0,0.010850694444444444,47.037760416666664,0)" xlink:href="#ai"/><use transform="matrix(0.010850694444444444,0,0,0.010850694444444444,58.76736111111111,0)" xlink:href="#ai"/></g><g id="D"><use transform="matrix(0.010850694444444444,0,0,0.010850694444444444,0,0)" xlink:href="#as"/><use transform="matrix(0.010850694444444444,0,0,0.010850694444444444,13.140190972222221,0)" xlink:href="#ai"/><use transform="matrix(0.010850694444444444,0,0,0.010850694444444444,24.869791666666664,0)" xlink:href="#V"/><use transform="matrix(0.010850694444444444,0,0,0.010850694444444444,37.82552083333333,0)" xlink:href="#Z"/><use transform="matrix(0.010850694444444444,0,0,0.010850694444444444,46.53862847222221,0)" xlink:href="#Y"/><use transform="matrix(0.010850694444444444,0,0,0.010850694444444444,52.50651041666666,0)" xlink:href="#R"/></g><path d="M135 0v-1490h581c339 0 533 210 533 503 0 295-197 500-540 500H440V0H135zm305-733h220c186 0 274-104 274-254s-88-251-275-251H440v505" id="aB"/><path d="M440 22C227 22 68-92 68-313c0-250 202-322 422-343 195-21 271-24 271-105 0-95-63-149-175-149-116 0-187 57-211 129l-275-46c57-194 237-305 487-305 240 0 474 108 474 379V0H777v-155h-10C713-51 605 22 440 22zm85-211c140 0 238-93 238-211v-121c-37 26-156 42-222 51-111 16-185 59-185 149 0 87 70 132 169 132" id="aC"/><path d="M120 396l69-226c123 42 245 23 254-107l8-60L31-1118h319c87 288 199 559 259 872 72-308 185-583 277-872h315L726 132c-68 181-186 294-410 294-79 0-153-13-196-30" id="aD"/><path d="M128 0v-1118h278l12 217c60-163 185-234 319-234 143 0 236 81 288 251 63-172 205-251 359-251 205 0 357 138 357 381V0h-301v-697c0-126-76-187-177-187-114 0-184 79-184 196V0H789v-705c0-109-72-179-174-179-106 0-187 74-187 208V0H128" id="aE"/><path d="M683-1118v229H474v562c0 71 29 104 102 104 23 0 73-7 95-13l43 225C647 9 580 16 520 16 296 16 174-96 174-301v-588H20v-229h154v-266h300v266h209" id="aF"/><g id="E"><use transform="matrix(0.010850694444444444,0,0,0.010850694444444444,0,0)" xlink:href="#aB"/><use transform="matrix(0.010850694444444444,0,0,0.010850694444444444,14.116753472222221,0)" xlink:href="#aC"/><use transform="matrix(0.010850694444444444,0,0,0.010850694444444444,26.63845486111111,0)" xlink:href="#aD"/><use transform="matrix(0.010850694444444444,0,0,0.010850694444444444,40.017361111111114,0)" xlink:href="#aE"/><use transform="matrix(0.010850694444444444,0,0,0.010850694444444444,60.29730902777778,0)" xlink:href="#N"/><use transform="matrix(0.010850694444444444,0,0,0.010850694444444444,73.53515625,0)" xlink:href="#an"/><use transform="matrix(0.010850694444444444,0,0,0.010850694444444444,87.36979166666667,0)" xlink:href="#aF"/></g><g id="F"><use transform="matrix(0.010850694444444444,0,0,0.010850694444444444,0,0)" xlink:href="#ak"/><use transform="matrix(0.010850694444444444,0,0,0.010850694444444444,13.823784722222221,0)" xlink:href="#af"/><use transform="matrix(0.010850694444444444,0,0,0.010850694444444444,25.9765625,0)" xlink:href="#au"/><use transform="matrix(0.010850694444444444,0,0,0.010850694444444444,38.46571180555556,0)" xlink:href="#ag"/><use transform="matrix(0.010850694444444444,0,0,0.010850694444444444,57.931857638888886,0)" xlink:href="#V"/><use transform="matrix(0.010850694444444444,0,0,0.010850694444444444,70.88758680555556,0)" xlink:href="#ad"/><use transform="matrix(0.010850694444444444,0,0,0.010850694444444444,84.01692708333333,0)" xlink:href="#X"/><use transform="matrix(0.010850694444444444,0,0,0.010850694444444444,91.28689236111111,0)" xlink:href="#at"/><use transform="matrix(0.010850694444444444,0,0,0.010850694444444444,107.32421874999997,0)" xlink:href="#af"/><use transform="matrix(0.010850694444444444,0,0,0.010850694444444444,119.8025173611111,0)" xlink:href="#X"/><use transform="matrix(0.010850694444444444,0,0,0.010850694444444444,126.85546875,0)" xlink:href="#V"/></g><g id="G"><use transform="matrix(0.010850694444444444,0,0,0.010850694444444444,0,0)" xlink:href="#ad"/><use transform="matrix(0.010850694444444444,0,0,0.010850694444444444,13.129340277777777,0)" xlink:href="#S"/><use transform="matrix(0.010850694444444444,0,0,0.010850694444444444,26.453993055555554,0)" xlink:href="#X"/><use transform="matrix(0.010850694444444444,0,0,0.010850694444444444,33.50694444444444,0)" xlink:href="#V"/></g><path d="M481 0L54-1118h197c107 314 236 620 325 951 87-331 217-637 324-951h197L670 0H481" id="aG"/><g id="H"><use transform="matrix(0.010850694444444444,0,0,0.010850694444444444,0,0)" xlink:href="#Q"/><use transform="matrix(0.010850694444444444,0,0,0.010850694444444444,5.381944444444445,0)" xlink:href="#ad"/><use transform="matrix(0.010850694444444444,0,0,0.010850694444444444,18.18576388888889,0)" xlink:href="#aG"/><use transform="matrix(0.010850694444444444,0,0,0.010850694444444444,30.240885416666664,0)" xlink:href="#S"/><use transform="matrix(0.010850694444444444,0,0,0.010850694444444444,43.56553819444444,0)" xlink:href="#Q"/><use transform="matrix(0.010850694444444444,0,0,0.010850694444444444,48.947482638888886,0)" xlink:href="#W"/><use transform="matrix(0.010850694444444444,0,0,0.010850694444444444,61.642795138888886,0)" xlink:href="#V"/><use transform="matrix(0.010850694444444444,0,0,0.010850694444444444,74.59852430555556,0)" xlink:href="#Y"/><use transform="matrix(0.010850694444444444,0,0,0.010850694444444444,80.56640625,0)" xlink:href="#R"/></g><path d="M653-1490V0H466v-1314h-10L96-1047v-204l324-239h233" id="aH"/><use transform="matrix(0.010850694444444444,0,0,0.010850694444444444,0,0)" xlink:href="#aH" id="J"/><path d="M441-652l13-317-268 171-72-126 282-146-282-146 72-128 268 171-13-317h144l-12 317 267-171 72 128-282 146 282 146-72 126-267-171 12 317H441" id="aI"/><use transform="matrix(0.010850694444444444,0,0,0.010850694444444444,0,0)" xlink:href="#aI" id="K"/></defs></g></svg>