<svg xmlns="http://www.w3.org/2000/svg" xmlns:xlink="http://www.w3.org/1999/xlink" xmlns:lucid="lucid" width="802" height="1022"><g transform="translate(1001 481)" lucid:page-tab-id="0_0"><path d="M-1500-500H0v1500h-1500z" fill="#fff"/><path d="M-640-474a6 6 0 0 1 6-6h428a6 6 0 0 1 6 6V534a6 6 0 0 1-6 6h-428a6 6 0 0 1-6-6z" stroke="#000" stroke-width="2" fill-opacity="0"/><use xlink:href="#a" transform="matrix(1,0,0,1,-632,-472) translate(180.056640625 38.75)"/><path d="M-979.75-300.05v-.2A19.75 19.75 0 0 1-960-320a19.75 19.75 0 0 1 19.75 19.75A19.75 19.75 0 0 1-960-280.5a19.75 19.75 0 0 1-19.75-19.75v-.2" stroke="#000" stroke-width="2" fill-opacity="0"/><path d="M-1000-314a6 6 0 0 1 6-6h68a6 6 0 0 1 6 6v146a6 6 0 0 1-6 6h-68a6 6 0 0 1-6-6z" fill="none"/><path d="M-960-280.5v55.3l40 63.2m-40-63.2l-40 63.2m0-98.75h80" stroke="#000" stroke-width="2" fill="none"/><use xlink:href="#b" transform="matrix(1,0,0,1,-1080,-162) translate(89.82421875 21.52777777777778)"/><path d="M-979.75 279.95v-.2A19.75 19.75 0 0 1-960 260a19.75 19.75 0 0 1 19.75 19.75A19.75 19.75 0 0 1-960 299.5a19.75 19.75 0 0 1-19.75-19.75v-.2" stroke="#000" stroke-width="2" fill-opacity="0"/><path d="M-1000 266a6 6 0 0 1 6-6h68a6 6 0 0 1 6 6v146a6 6 0 0 1-6 6h-68a6 6 0 0 1-6-6z" fill="none"/><path d="M-960 299.5v55.3l40 63.2m-40-63.2l-40 63.2m0-98.75h80" stroke="#000" stroke-width="2" fill="none"/><use xlink:href="#c" transform="matrix(1,0,0,1,-1080,418) translate(87.96875 21.52777777777778)"/><path d="M-480 183.8c0 27.63-31.34 50-70 50s-70-22.38-70-50c0-27.6 31.34-50 70-50s70 22.4 70 50z" stroke="#000" stroke-width="2" fill-opacity="0"/><use xlink:href="#d" transform="matrix(1,0,0,1,-620,133.81088720394467) translate(29.971362847222217 59.02777777777778)"/><path d="M-480 303.8c0 27.63-31.34 50-70 50s-70-22.38-70-50c0-27.6 31.34-50 70-50s70 22.4 70 50z" stroke="#000" stroke-width="2" fill-opacity="0"/><use xlink:href="#e" transform="matrix(1,0,0,1,-620,253.81088720394467) translate(44.58182291666667 59.02777777777778)"/><path d="M-958-229.98l3.27.07 4.14.25 4.05.42 3.95.6 3.88.73 3.83.9 3.8 1.05 3.77 1.23 3.76 1.4 3.78 1.6 3.8 1.78 3.84 2 3.9 2.25 3.97 2.54 4.08 2.83 4.2 3.18 4.33 3.6 4.53 4.06 4.73 4.65 5 5.32 5.3 6.16 5.73 7.22 6.2 8.58 6.9 10.4 7.84 12.94 9.23 16.83 11.74 23.75 19.24 43.53 49.75 117.58 11.73 23.75 9.23 16.83 7.83 12.95 6.88 10.4 6.23 8.58 5.73 7.22 5.32 6.16 5 5.32 4.72 4.64 4.52 4.07 4.32 3.6 4.2 3.17 4.06 2.83 3.98 2.53 3.9 2.25 3.83 2 3.8 1.8 3.77 1.58 3.76 1.4 3.77 1.23 3.8 1.06 3.82.9 3.88.73.48.07" stroke="#3a414a" stroke-width="2" stroke-linejoin="round" fill="none"/><path d="M-957.97-229.98l-4.02-.08" stroke="#3a414a" stroke-width="2" fill="none"/><path d="M-623 183.65l-13.55 6.43 1.2-14.95z" stroke="#3a414a" stroke-width="2" fill="#3a414a"/><path d="M-958-229.98l2.33.05 3.24.2 3.2.34 3.13.47 3.1.6 3.08.72 3.07.85 3.08 1 3.08 1.14 3.12 1.3 3.15 1.48 3.2 1.67 3.25 1.9 3.34 2.1 3.43 2.4 3.54 2.7 3.7 3.04 3.84 3.46 4.03 3.95 4.28 4.56 4.53 5.26 4.87 6.13 5.25 7.23 5.73 8.64 6.35 10.5 7.15 13.03 8.25 16.66 9.92 22.36 12.92 32.77 22.42 65.14 51.3 155.6 12.92 32.78 9.92 22.35 8.25 16.67 7.15 13.02 6.35 10.5 5.73 8.63 5.25 7.23 4.86 6.14 4.52 5.25 4.26 4.55 4.04 3.95 3.85 3.47 3.68 3.05 3.55 2.7 3.44 2.38 3.34 2.13 3.26 1.88 3.2 1.67 3.14 1.48 3.1 1.32 3.1 1.15 3.07 1 3.07.85 3.08.73.12.02" stroke="#3a414a" stroke-width="2" stroke-linejoin="round" fill="none"/><path d="M-957.97-229.98l-4.02-.08" stroke="#3a414a" stroke-width="2" fill="none"/><path d="M-623 303.6l-13.68 6.13 1.54-14.92z" stroke="#3a414a" stroke-width="2" fill="#3a414a"/><path d="M-958 349.98l9.37-.2 9.6-.6 8.97-.94 8.44-1.24 8-1.53 7.65-1.8 7.37-2.05 7.15-2.32 7-2.6 6.9-2.9 6.87-3.24 6.92-3.62 7.07-4.08 7.34-4.66 7.78-5.4 8.55-6.5 10-8.3 13.65-12.33 52.4-49.87 10-8.28 8.56-6.5 7.78-5.4 7.33-4.67 7.06-4.08 6.92-3.62 6.88-3.24 6.9-2.9 7-2.6 7.14-2.3 7.37-2.07 7.65-1.8 8-1.52 8.44-1.23 8.97-.94 4-.25" stroke="#3a414a" stroke-width="2" stroke-linejoin="round" fill="none"/><path d="M-957.97 349.98l-4.02.08" stroke="#3a414a" stroke-width="2" fill="none"/><path d="M-623 183.88l-12.72 7.96-.53-15z" stroke="#3a414a" stroke-width="2" fill="#3a414a"/><path d="M-958 347.98l34.16-.68 27.43-1.7 22.9-2.4 20.6-3.05 20.8-3.97 29.98-7.13 54.23-13.42 20.78-3.97 20.63-3.05 22.9-2.38 27.43-1.7 19.18-.4" stroke="#3a414a" stroke-width="2" stroke-linejoin="round" fill="none"/><path d="M-957.97 347.98l-4.02.08" stroke="#3a414a" stroke-width="2" fill="none"/><path d="M-623 303.85l-12.84 7.76-.3-15z" stroke="#3a414a" stroke-width="2" fill="#3a414a"/><path d="M-480-336.2c0 27.63-31.34 50-70 50s-70-22.38-70-50c0-27.6 31.34-50 70-50s70 22.4 70 50z" stroke="#000" stroke-width="2" fill-opacity="0"/><use xlink:href="#f" transform="matrix(1,0,0,1,-620,-386.1891127960553) translate(27.936857638888892 43.40277777777778)"/><use xlink:href="#g" transform="matrix(1,0,0,1,-620,-386.1891127960553) translate(22.05578125 70.29079861111111)"/><path d="M-480-106.2c0 27.63-31.34 50-70 50s-70-22.38-70-50c0-27.6 31.34-50 70-50s70 22.4 70 50z" stroke="#000" stroke-width="2" fill-opacity="0"/><use xlink:href="#f" transform="matrix(1,0,0,1,-620,-156.18911279605533) translate(27.936857638888892 43.40277777777778)"/><use xlink:href="#h" transform="matrix(1,0,0,1,-620,-156.18911279605533) translate(26.8409375 70.29079861111111)"/><path d="M-480-221.2c0 27.63-31.34 50-70 50s-70-22.38-70-50c0-27.6 31.34-50 70-50s70 22.4 70 50z" stroke="#000" stroke-width="2" fill-opacity="0"/><use xlink:href="#f" transform="matrix(1,0,0,1,-620,-271.1891127960553) translate(27.936857638888892 40.53777777777778)"/><use xlink:href="#i" transform="matrix(1,0,0,1,-620,-271.1891127960553) translate(18.60526041666667 67.4257986111111)"/><path d="M-955.42-221.7l67.4-41.03 31.8-17.43 23.83-11.78 20.26-8.96 18.4-7.24 17.46-6.03 17.13-5.13 17.3-4.4 17.92-3.75 19-3.16 20.7-2.56 23.16-1.87 24.08-.93" stroke="#3a414a" stroke-width="2" stroke-linejoin="round" fill="none"/><path d="M-955.4-221.72l-3.44 2.1" stroke="#3a414a" stroke-width="2" fill="none"/><path d="M-623-336.16l-12.88 7.68-.22-15z" stroke="#3a414a" stroke-width="2" fill="#3a414a"/><path d="M-955.42-221.7l7.72-4.66 8.2-4.48 7.93-3.9 7.7-3.42 7.58-2.97 7.48-2.6 7.45-2.2 7.47-1.9 7.58-1.6 7.75-1.3 8.02-.98 8.4-.7 8.94-.34 9.67.03 10.8.47 12.5 1.1 15.6 2.02 23.57 4.1 94.67 18.6 21.22 2.76 18.32 1.6 9.88.43" stroke="#3a414a" stroke-width="2" stroke-linejoin="round" fill="none"/><path d="M-955.4-221.72l-3.44 2.08" stroke="#3a414a" stroke-width="2" fill="none"/><path d="M-623-221.24l-13.18 7.16.4-15z" stroke="#3a414a" stroke-width="2" fill="#3a414a"/><path d="M-955.42-221.7l4.25-2.56 4.82-2.64 4.6-2.27 4.4-1.95 4.23-1.66 4.1-1.42 4-1.2 3.9-1 3.86-.8 3.8-.63 3.77-.46 3.78-.3 3.78-.15h3.82l3.87.18 3.95.35 4.05.52 4.18.72 4.35.94 4.56 1.18 4.83 1.48 5.16 1.8 5.6 2.24 6.15 2.77 6.92 3.46 8.03 4.44 9.82 6 13.35 8.94 84.26 61.2 12.35 7.54 10.55 5.84 9.4 4.7 8.62 3.87 8.06 3.22 7.63 2.68 7.3 2.23 7.07 1.83 6.88 1.48 6.76 1.16 6.67.86 1 .1" stroke="#3a414a" stroke-width="2" stroke-linejoin="round" fill="none"/><path d="M-955.4-221.72l-3.44 2.08" stroke="#3a414a" stroke-width="2" fill="none"/><path d="M-623-106.3l-13.36 6.83.78-14.98z" stroke="#3a414a" stroke-width="2" fill="#3a414a"/><path d="M-480 443.8c0 27.63-31.34 50-70 50s-70-22.38-70-50c0-27.6 31.34-50 70-50s70 22.4 70 50z" stroke="#000" stroke-width="2" fill-opacity="0"/><use xlink:href="#j" transform="matrix(1,0,0,1,-620,393.8108872039447) translate(13.912335069444447 59.02777777777778)"/><path d="M-958 352.24l17.22.35 15.92 1 14.18 1.47 12.87 1.9 11.87 2.26 11.18 2.62 10.74 3 10.58 3.44 10.8 4 11.65 4.9 14.03 6.64 67.9 34.98 11.65 4.9 10.82 4 10.6 3.46 10.73 3 11.18 2.62 11.88 2.26 12.88 1.9 14.18 1.48 15.92 1 2.23.04" stroke="#3a414a" stroke-width="2" stroke-linejoin="round" fill="none"/><path d="M-957.97 352.24l-4.02-.08" stroke="#3a414a" stroke-width="2" fill="none"/><path d="M-623 443.77l-13.14 7.23.3-15z" stroke="#3a414a" stroke-width="2" fill="#3a414a"/><path d="M-460 38.8c0 37.3-35.82 67.5-80 67.5s-80-30.2-80-67.5c0-37.27 35.82-67.5 80-67.5s80 30.23 80 67.5z" stroke="#000" stroke-width="2" fill-opacity="0"/><use xlink:href="#k" transform="matrix(1,0,0,1,-620,-28.689112796055326) translate(33.48264756944444 55.27777777777778)"/><use xlink:href="#l" transform="matrix(1,0,0,1,-620,-28.689112796055326) translate(60.39779513888889 82.16579861111111)"/><use xlink:href="#m" transform="matrix(1,0,0,1,-620,-28.689112796055326) translate(33.271059027777774 109.05381944444446)"/><path d="M-955.42-221.7l3.83-2.32 4.33-2.36 4-1.97 3.74-1.65 3.5-1.38 3.32-1.15 3.15-.94 3-.77 2.9-.6 2.8-.47 2.7-.34 2.63-.22 2.58-.1h2.53l2.5.12 2.46.2 2.46.33 2.46.4 2.46.54 2.5.65 2.5.75 2.56.9 2.6 1.05 2.7 1.2 2.76 1.38 2.87 1.6 3 1.82 3.14 2.1 3.33 2.44 3.56 2.84 3.84 3.33 4.18 3.96 4.63 4.76 5.24 5.84 6.06 7.38 7.34 9.75 9.64 13.96 16.23 25.9 50.1 82.9 12.06 17.5 9.7 12.9 8.38 10.17 7.47 8.35 6.84 7.02 6.34 6 5.96 5.16 5.65 4.5 5.4 3.96 5.2 3.48 5.05 3.07 4.92 2.73 4.82 2.4 4.73 2.14 4.7 1.87 4.66 1.65 4.65 1.42 4.67 1.2 4.7 1.02 4.74.8 1.7.23" stroke="#3a414a" stroke-width="2" stroke-linejoin="round" fill="none"/><path d="M-955.4-221.72l-3.44 2.08" stroke="#3a414a" stroke-width="2" fill="none"/><path d="M-623 38.67l-13.47 6.6 1.02-14.96z" stroke="#3a414a" stroke-width="2" fill="#3a414a"/><defs><path d="M52 0l541-1490h220L1361 0h-200l-149-416H398L254 0H52zm404-582h497c-103-290-145-390-251-756-108 377-145 460-246 756" id="n"/><path d="M180 0v-1490h510c348 0 508 209 508 474 0 266-160 477-507 477H370V0H180zm190-706h312c236 0 327-133 327-310 0-176-91-307-329-307H370v617" id="o"/><path d="M370-1490V0H180v-1490h190" id="p"/><g id="a"><use transform="matrix(0.01953125,0,0,0.01953125,0,0)" xlink:href="#n"/><use transform="matrix(0.01953125,0,0,0.01953125,27.59765625,0)" xlink:href="#o"/><use transform="matrix(0.01953125,0,0,0.01953125,53.14453125,0)" xlink:href="#p"/></g><path d="M783 20c-382 0-661-292-661-764 0-473 279-766 661-766 302 0 548 182 601 489h-190c-42-204-217-313-411-313-268 0-476 208-476 590 0 381 209 588 476 588 195 0 369-110 411-313h190c-52 303-296 489-601 489" id="q"/><path d="M338-1490V0H158v-1490h180" id="r"/><path d="M158 0v-1118h180V0H158zm91-1301c-68 0-125-53-125-119s57-119 125-119c69 0 126 53 126 119s-57 119-126 119" id="s"/><path d="M628 24c-324 0-524-230-524-574 0-343 198-582 503-582 237 0 487 146 487 559v75H286c9 234 145 362 343 362 132 0 231-58 273-172l174 48C1024-91 857 24 628 24zM287-650h624c-17-190-120-322-304-322-192 0-309 151-320 322" id="t"/><path d="M338-670V0H158v-1118h173l1 207c72-158 192-221 342-221 226 0 378 139 378 422V0H872v-695c0-172-96-275-252-275-161 0-282 109-282 300" id="u"/><path d="M598-1118v154H368v674c0 100 37 144 132 144 23 0 62-6 92-12L629-6c-37 13-88 20-134 20-193 0-307-107-307-290v-688H20v-154h168v-266h180v266h230" id="v"/><g id="b"><use transform="matrix(0.010850694444444444,0,0,0.010850694444444444,0,0)" xlink:href="#q"/><use transform="matrix(0.010850694444444444,0,0,0.010850694444444444,16.23263888888889,0)" xlink:href="#r"/><use transform="matrix(0.010850694444444444,0,0,0.010850694444444444,21.614583333333336,0)" xlink:href="#s"/><use transform="matrix(0.010850694444444444,0,0,0.010850694444444444,26.99652777777778,0)" xlink:href="#t"/><use transform="matrix(0.010850694444444444,0,0,0.010850694444444444,39.95225694444444,0)" xlink:href="#u"/><use transform="matrix(0.010850694444444444,0,0,0.010850694444444444,53.08159722222222,0)" xlink:href="#v"/></g><path d="M471 26C259 26 90-98 90-318c0-256 228-303 435-329 202-27 287-16 287-108 0-139-79-219-234-219-161 0-248 86-283 164l-173-57c86-203 278-265 451-265 150 0 419 46 419 395V0H815v-152h-12C765-73 660 26 471 26zm31-159c199 0 310-134 310-271v-155c-30 35-226 55-295 64-131 17-246 59-246 186 0 116 97 176 231 176" id="w"/><path d="M577 24c-279 0-473-224-473-580 0-354 195-576 474-576 218 0 287 134 324 193h14v-551h180V0H922v-173h-20C865-111 790 24 577 24zm27-161c203 0 314-172 314-421 0-247-108-413-314-413-212 0-317 181-317 413 0 235 108 421 317 421" id="x"/><path d="M158 0v-1118h175l1 205c55-151 181-225 313-225 147 0 245 90 285 228 53-141 190-228 352-228 194 0 352 125 352 384V0h-181v-749c0-161-105-225-225-225-151 0-243 103-243 244V0H807v-767c0-124-93-207-219-207-131 0-250 92-250 270V0H158" id="y"/><g id="c"><use transform="matrix(0.010850694444444444,0,0,0.010850694444444444,0,0)" xlink:href="#w"/><use transform="matrix(0.010850694444444444,0,0,0.010850694444444444,12.47829861111111,0)" xlink:href="#x"/><use transform="matrix(0.010850694444444444,0,0,0.010850694444444444,26.085069444444443,0)" xlink:href="#y"/><use transform="matrix(0.010850694444444444,0,0,0.010850694444444444,45.55121527777778,0)" xlink:href="#s"/><use transform="matrix(0.010850694444444444,0,0,0.010850694444444444,50.93315972222221,0)" xlink:href="#u"/></g><path d="M158 0v-1118h174v172h12c41-113 157-188 290-188 26 0 70 2 91 3v181c-11-2-60-10-108-10-161 0-279 109-279 260V0H158" id="z"/><path d="M611 442c-248 0-391-105-460-228l146-94c47 65 117 165 314 165 178 0 307-82 307-266v-224h-17C863-141 792-18 576-18c-268 0-472-195-472-546 0-346 197-568 476-568 216 0 288 133 326 193h17v-179h175V29c0 289-215 413-487 413zm-5-620c203 0 314-146 314-390 0-237-108-403-314-403-213 0-319 180-319 403 0 230 109 390 319 390" id="A"/><path d="M538 24C308 24 148-78 108-271l171-41c32 123 123 178 257 178 156 0 256-77 256-169 0-77-54-128-164-154l-186-44c-203-48-300-148-300-305 0-192 176-326 414-326 230 0 351 112 402 269l-163 42c-31-80-94-158-238-158-133 0-233 69-233 162 0 83 57 129 188 160l169 40c203 48 298 149 298 302 0 196-179 339-441 339" id="B"/><g id="d"><use transform="matrix(0.010850694444444444,0,0,0.010850694444444444,0,0)" xlink:href="#z"/><use transform="matrix(0.010850694444444444,0,0,0.010850694444444444,7.996961805555555,0)" xlink:href="#t"/><use transform="matrix(0.010850694444444444,0,0,0.010850694444444444,20.95269097222222,0)" xlink:href="#A"/><use transform="matrix(0.010850694444444444,0,0,0.010850694444444444,34.58116319444444,0)" xlink:href="#s"/><use transform="matrix(0.010850694444444444,0,0,0.010850694444444444,39.963107638888886,0)" xlink:href="#B"/><use transform="matrix(0.010850694444444444,0,0,0.010850694444444444,51.69270833333333,0)" xlink:href="#v"/><use transform="matrix(0.010850694444444444,0,0,0.010850694444444444,58.74565972222222,0)" xlink:href="#t"/><use transform="matrix(0.010850694444444444,0,0,0.010850694444444444,71.70138888888889,0)" xlink:href="#z"/></g><path d="M613 24c-304 0-509-231-509-576 0-350 205-580 509-580 305 0 511 230 511 580 0 345-206 576-511 576zm0-161c226 0 329-195 329-415 0-222-103-419-329-419-223 0-326 196-326 419 0 220 103 415 326 415" id="C"/><g id="e"><use transform="matrix(0.010850694444444444,0,0,0.010850694444444444,0,0)" xlink:href="#r"/><use transform="matrix(0.010850694444444444,0,0,0.010850694444444444,5.381944444444445,0)" xlink:href="#C"/><use transform="matrix(0.010850694444444444,0,0,0.010850694444444444,18.70659722222222,0)" xlink:href="#A"/><use transform="matrix(0.010850694444444444,0,0,0.010850694444444444,32.33506944444444,0)" xlink:href="#s"/><use transform="matrix(0.010850694444444444,0,0,0.010850694444444444,37.717013888888886,0)" xlink:href="#u"/></g><g id="f"><use transform="matrix(0.010850694444444444,0,0,0.010850694444444444,0,0)" xlink:href="#y"/><use transform="matrix(0.010850694444444444,0,0,0.010850694444444444,19.466145833333332,0)" xlink:href="#w"/><use transform="matrix(0.010850694444444444,0,0,0.010850694444444444,31.944444444444443,0)" xlink:href="#u"/><use transform="matrix(0.010850694444444444,0,0,0.010850694444444444,45.07378472222222,0)" xlink:href="#w"/><use transform="matrix(0.010850694444444444,0,0,0.010850694444444444,57.55208333333333,0)" xlink:href="#A"/><use transform="matrix(0.010850694444444444,0,0,0.010850694444444444,71.18055555555554,0)" xlink:href="#t"/></g><path d="M537 14c-226 0-379-139-379-422v-710h180v695c0 172 97 275 253 275 160 0 281-109 281-300v-670h181V0H879v-209C806-46 684 14 537 14" id="D"/><path d="M158 418v-1536h174v179h20c37-59 106-193 324-193 279 0 474 222 474 576 0 356-194 580-473 580-213 0-288-135-325-197h-14v591H158zm492-555c209 0 317-186 317-421 0-232-105-413-317-413-206 0-314 166-314 413 0 249 111 421 314 421" id="E"/><g id="g"><use transform="matrix(0.010850694444444444,0,0,0.010850694444444444,0,0)" xlink:href="#B"/><use transform="matrix(0.010850694444444444,0,0,0.010850694444444444,11.729600694444445,0)" xlink:href="#D"/><use transform="matrix(0.010850694444444444,0,0,0.010850694444444444,24.869791666666664,0)" xlink:href="#E"/><use transform="matrix(0.010850694444444444,0,0,0.010850694444444444,38.4765625,0)" xlink:href="#E"/><use transform="matrix(0.010850694444444444,0,0,0.010850694444444444,52.08333333333333,0)" xlink:href="#r"/><use transform="matrix(0.010850694444444444,0,0,0.010850694444444444,57.46527777777778,0)" xlink:href="#s"/><use transform="matrix(0.010850694444444444,0,0,0.010850694444444444,62.84722222222221,0)" xlink:href="#t"/><use transform="matrix(0.010850694444444444,0,0,0.010850694444444444,75.80295138888889,0)" xlink:href="#z"/><use transform="matrix(0.010850694444444444,0,0,0.010850694444444444,84.16883680555556,0)" xlink:href="#B"/></g><path d="M481 0L54-1118h197c107 314 236 620 325 951 87-331 217-637 324-951h197L670 0H481" id="F"/><path d="M613 24c-304 0-509-231-509-576 0-350 205-580 509-580 216 0 392 114 453 309l-173 49c-33-115-133-197-280-197-223 0-326 196-326 419 0 220 103 415 326 415 150 0 252-85 285-206l172 49C1010-95 832 24 613 24" id="G"/><g id="h"><use transform="matrix(0.010850694444444444,0,0,0.010850694444444444,0,0)" xlink:href="#s"/><use transform="matrix(0.010850694444444444,0,0,0.010850694444444444,5.381944444444445,0)" xlink:href="#u"/><use transform="matrix(0.010850694444444444,0,0,0.010850694444444444,18.18576388888889,0)" xlink:href="#F"/><use transform="matrix(0.010850694444444444,0,0,0.010850694444444444,30.240885416666664,0)" xlink:href="#C"/><use transform="matrix(0.010850694444444444,0,0,0.010850694444444444,43.56553819444444,0)" xlink:href="#s"/><use transform="matrix(0.010850694444444444,0,0,0.010850694444444444,48.947482638888886,0)" xlink:href="#G"/><use transform="matrix(0.010850694444444444,0,0,0.010850694444444444,61.642795138888886,0)" xlink:href="#t"/><use transform="matrix(0.010850694444444444,0,0,0.010850694444444444,74.59852430555556,0)" xlink:href="#B"/></g><path d="M140 405l46-156c120 36 205 19 263-150l32-93L54-1118h197c107 313 237 620 324 950 87-331 219-637 326-950h196L606 167c-68 178-176 259-334 259-64 0-113-12-132-21" id="H"/><g id="i"><use transform="matrix(0.010850694444444444,0,0,0.010850694444444444,0,0)" xlink:href="#E"/><use transform="matrix(0.010850694444444444,0,0,0.010850694444444444,13.823784722222221,0)" xlink:href="#w"/><use transform="matrix(0.010850694444444444,0,0,0.010850694444444444,25.9765625,0)" xlink:href="#H"/><use transform="matrix(0.010850694444444444,0,0,0.010850694444444444,38.46571180555556,0)" xlink:href="#y"/><use transform="matrix(0.010850694444444444,0,0,0.010850694444444444,57.931857638888886,0)" xlink:href="#t"/><use transform="matrix(0.010850694444444444,0,0,0.010850694444444444,70.88758680555556,0)" xlink:href="#u"/><use transform="matrix(0.010850694444444444,0,0,0.010850694444444444,84.01692708333333,0)" xlink:href="#v"/><use transform="matrix(0.010850694444444444,0,0,0.010850694444444444,91.06987847222221,0)" xlink:href="#B"/></g><path d="M338-670V0H158v-1490h180v566c73-149 190-208 336-208 226 0 379 139 379 422V0H872v-695c0-172-96-275-252-275-161 0-282 109-282 300" id="I"/><path d="M677 24c-213 0-288-135-325-197h-20V0H158v-1490h180v551h14c37-59 106-193 324-193 279 0 474 222 474 576 0 356-194 580-473 580zm-27-161c209 0 317-186 317-421 0-232-105-413-317-413-206 0-314 166-314 413 0 249 111 421 314 421" id="J"/><g id="j"><use transform="matrix(0.010850694444444444,0,0,0.010850694444444444,0,0)" xlink:href="#x"/><use transform="matrix(0.010850694444444444,0,0,0.010850694444444444,13.606770833333332,0)" xlink:href="#w"/><use transform="matrix(0.010850694444444444,0,0,0.010850694444444444,26.085069444444443,0)" xlink:href="#B"/><use transform="matrix(0.010850694444444444,0,0,0.010850694444444444,37.814670138888886,0)" xlink:href="#I"/><use transform="matrix(0.010850694444444444,0,0,0.010850694444444444,50.95486111111111,0)" xlink:href="#J"/><use transform="matrix(0.010850694444444444,0,0,0.010850694444444444,64.56163194444444,0)" xlink:href="#C"/><use transform="matrix(0.010850694444444444,0,0,0.010850694444444444,78.1032986111111,0)" xlink:href="#w"/><use transform="matrix(0.010850694444444444,0,0,0.010850694444444444,90.58159722222221,0)" xlink:href="#z"/><use transform="matrix(0.010850694444444444,0,0,0.010850694444444444,98.57855902777777,0)" xlink:href="#x"/></g><g id="k"><use transform="matrix(0.010850694444444444,0,0,0.010850694444444444,0,0)" xlink:href="#B"/><use transform="matrix(0.010850694444444444,0,0,0.010850694444444444,11.729600694444445,0)" xlink:href="#v"/><use transform="matrix(0.010850694444444444,0,0,0.010850694444444444,19.108072916666668,0)" xlink:href="#w"/><use transform="matrix(0.010850694444444444,0,0,0.010850694444444444,31.586371527777775,0)" xlink:href="#v"/><use transform="matrix(0.010850694444444444,0,0,0.010850694444444444,38.85633680555556,0)" xlink:href="#s"/><use transform="matrix(0.010850694444444444,0,0,0.010850694444444444,44.23828125,0)" xlink:href="#B"/><use transform="matrix(0.010850694444444444,0,0,0.010850694444444444,55.96788194444444,0)" xlink:href="#v"/><use transform="matrix(0.010850694444444444,0,0,0.010850694444444444,63.23784722222222,0)" xlink:href="#s"/><use transform="matrix(0.010850694444444444,0,0,0.010850694444444444,68.61979166666667,0)" xlink:href="#G"/><use transform="matrix(0.010850694444444444,0,0,0.010850694444444444,81.31510416666667,0)" xlink:href="#B"/></g><g id="l"><use transform="matrix(0.010850694444444444,0,0,0.010850694444444444,0,0)" xlink:href="#w"/><use transform="matrix(0.010850694444444444,0,0,0.010850694444444444,12.47829861111111,0)" xlink:href="#u"/><use transform="matrix(0.010850694444444444,0,0,0.010850694444444444,25.60763888888889,0)" xlink:href="#x"/></g><g id="m"><use transform="matrix(0.010850694444444444,0,0,0.010850694444444444,0,0)" xlink:href="#w"/><use transform="matrix(0.010850694444444444,0,0,0.010850694444444444,12.47829861111111,0)" xlink:href="#u"/><use transform="matrix(0.010850694444444444,0,0,0.010850694444444444,25.60763888888889,0)" xlink:href="#w"/><use transform="matrix(0.010850694444444444,0,0,0.010850694444444444,38.0859375,0)" xlink:href="#r"/><use transform="matrix(0.010850694444444444,0,0,0.010850694444444444,43.576388888888886,0)" xlink:href="#H"/><use transform="matrix(0.010850694444444444,0,0,0.010850694444444444,56.39105902777778,0)" xlink:href="#v"/><use transform="matrix(0.010850694444444444,0,0,0.010850694444444444,63.66102430555555,0)" xlink:href="#s"/><use transform="matrix(0.010850694444444444,0,0,0.010850694444444444,69.04296875,0)" xlink:href="#G"/><use transform="matrix(0.010850694444444444,0,0,0.010850694444444444,81.73828125,0)" xlink:href="#B"/></g></defs></g></svg>